<svg width="1513" height="983" viewBox="0 0 1513 983" fill="none" xmlns="http://www.w3.org/2000/svg">
<g clip-path="url(#clip0_5_18)">
<rect width="1512.64" height="982.772" fill="url(#paint0_linear_5_18)"/>
<rect width="1512.64" height="982.772" fill="url(#paint1_linear_5_18)"/>
<rect width="1512.64" height="982.772" fill="url(#paint2_linear_5_18)"/>
<g opacity="0.993421" filter="url(#filter0_f_5_18)">
<path d="M378.161 437.689C378.161 331.653 464.12 245.693 570.157 245.693V245.693C676.193 245.693 762.152 331.653 762.152 437.689V437.689C762.152 543.725 676.193 629.684 570.157 629.684V629.684C464.12 629.684 378.161 543.725 378.161 437.689V437.689Z" fill="#7AD5FF" fill-opacity="0.2"/>
</g>
<g opacity="0.652103" filter="url(#filter1_f_5_18)">
<path d="M750.492 545.084C750.492 439.047 836.451 353.088 942.487 353.088V353.088C1048.52 353.088 1134.48 439.047 1134.48 545.084V545.084C1134.48 651.12 1048.52 737.079 942.487 737.079V737.079C836.451 737.079 750.492 651.12 750.492 545.084V545.084Z" fill="#51A2FF" fill-opacity="0.2"/>
</g>
</g>
<defs>
<filter id="filter0_f_5_18" x="250.161" y="117.693" width="639.991" height="639.991" filterUnits="userSpaceOnUse" color-interpolation-filters="sRGB">
<feFlood flood-opacity="0" result="BackgroundImageFix"/>
<feBlend mode="normal" in="SourceGraphic" in2="BackgroundImageFix" result="shape"/>
<feGaussianBlur stdDeviation="64" result="effect1_foregroundBlur_5_18"/>
</filter>
<filter id="filter1_f_5_18" x="622.492" y="225.088" width="639.991" height="639.991" filterUnits="userSpaceOnUse" color-interpolation-filters="sRGB">
<feFlood flood-opacity="0" result="BackgroundImageFix"/>
<feBlend mode="normal" in="SourceGraphic" in2="BackgroundImageFix" result="shape"/>
<feGaussianBlur stdDeviation="64" result="effect1_foregroundBlur_5_18"/>
</filter>
<linearGradient id="paint0_linear_5_18" x1="0" y1="0" x2="897.974" y2="1382.13" gradientUnits="userSpaceOnUse">
<stop stop-color="#EFF6FF"/>
<stop offset="0.5" stop-color="#F5F6FF"/>
<stop offset="1" stop-color="#F2F2FD"/>
</linearGradient>
<linearGradient id="paint1_linear_5_18" x1="756.322" y1="0" x2="756.322" y2="982.772" gradientUnits="userSpaceOnUse">
<stop offset="0.00101753" stop-color="#808080" stop-opacity="0.04"/>
<stop offset="0.00101753" stop-opacity="0"/>
</linearGradient>
<linearGradient id="paint2_linear_5_18" x1="0" y1="491.386" x2="1512.64" y2="491.386" gradientUnits="userSpaceOnUse">
<stop offset="0.000661094" stop-color="#808080" stop-opacity="0.04"/>
<stop offset="0.000661094" stop-opacity="0"/>
</linearGradient>
<clipPath id="clip0_5_18">
<rect width="1512.64" height="982.772" fill="white"/>
</clipPath>
</defs>
</svg>
