<svg width="48" height="48" viewBox="0 0 48 48" fill="none" xmlns="http://www.w3.org/2000/svg">
<path d="M31.9957 5.99927C30.935 5.99927 29.9177 6.42064 29.1676 7.17068C28.4176 7.92072 27.9962 8.938 27.9962 9.99872V21.9971C27.9962 23.0578 28.4176 24.0751 29.1676 24.8251C29.9177 25.5752 30.935 25.9965 31.9957 25.9965C32.526 25.9965 33.0347 26.2072 33.4097 26.5823C33.7847 26.9573 33.9954 27.4659 33.9954 27.9963V29.996C33.9954 31.0567 33.574 32.074 32.824 32.824C32.0739 33.5741 31.0567 33.9955 29.9959 33.9955C29.4656 33.9955 28.9569 34.2061 28.5819 34.5812C28.2069 34.9562 27.9962 35.4648 27.9962 35.9952V39.9946C27.9962 40.525 28.2069 41.0336 28.5819 41.4087C28.9569 41.7837 29.4656 41.9944 29.9959 41.9944C33.1781 41.9944 36.2299 40.7303 38.4801 38.4801C40.7302 36.23 41.9943 33.1782 41.9943 29.996V9.99872C41.9943 8.938 41.5729 7.92072 40.8229 7.17068C40.0729 6.42064 39.0556 5.99927 37.9949 5.99927H31.9957Z" stroke="#030213" stroke-opacity="0.2" stroke-width="3.99946" stroke-linecap="round" stroke-linejoin="round"/>
<path d="M9.99866 5.99927C8.93794 5.99927 7.92066 6.42064 7.17062 7.17068C6.42058 7.92072 5.99921 8.938 5.99921 9.99872V21.9971C5.99921 23.0578 6.42058 24.0751 7.17062 24.8251C7.92066 25.5752 8.93794 25.9965 9.99866 25.9965C10.529 25.9965 11.0377 26.2072 11.4127 26.5823C11.7877 26.9573 11.9984 27.4659 11.9984 27.9963V29.996C11.9984 31.0567 11.577 32.074 10.827 32.824C10.0769 33.5741 9.05966 33.9955 7.99893 33.9955C7.46857 33.9955 6.95993 34.2061 6.58491 34.5812C6.20989 34.9562 5.99921 35.4648 5.99921 35.9952V39.9946C5.99921 40.525 6.20989 41.0336 6.58491 41.4087C6.95993 41.7837 7.46857 41.9944 7.99893 41.9944C11.1811 41.9944 14.2329 40.7303 16.4831 38.4801C18.7332 36.23 19.9973 33.1782 19.9973 29.996V9.99872C19.9973 8.938 19.5759 7.92072 18.8259 7.17068C18.0758 6.42064 17.0586 5.99927 15.9978 5.99927H9.99866Z" stroke="#030213" stroke-opacity="0.2" stroke-width="3.99946" stroke-linecap="round" stroke-linejoin="round"/>
</svg>
